HIERARCHY
ROOT hips
{
	OFFSET -0.003675 0.299928 -0.021708
	CHANNELS 6 Xposition Yposition Zposition Xrotation Yrotation Zrotation
	JOINT LowerBack
	{
		OFFSET 0.000919 0.177588 0.009275
		CHANNELS 3 Xrotation Yrotation Zrotation
		JOINT spine
		{
			OFFSET 0.000919 0.177588 0.009275
			CHANNELS 3 Xrotation Yrotation Zrotation
			JOINT chest
			{
				OFFSET 0.000456 0.100015 0.004638
				CHANNELS 3 Xrotation Yrotation Zrotation
				JOINT neck
				{
					OFFSET 0.000456 0.100015 0.004638
					CHANNELS 3 Xrotation Yrotation Zrotation
					JOINT head
					{
						OFFSET 0.000924 0.155147 0.009274
						CHANNELS 6 Xposition Yposition Zposition Xrotation Yrotation Zrotation
						End Site
						{
							OFFSET 0.000000 0.153400 0.000000
						}
					}
				}
				JOINT shoulder.L
				{
					OFFSET 0.019937 0.078966 0.057518
					CHANNELS 6 Xposition Yposition Zposition Yrotation Xrotation Zrotation
					JOINT upper_arm.L
					{
						OFFSET 0.177024 -0.020465 -0.095062
						CHANNELS 6 Xposition Yposition Zposition Xrotation Yrotation Zrotation
						JOINT forearm.L
						{
							OFFSET 0.247100 -0.135500 -0.061800
							CHANNELS 3 Xrotation Yrotation Zrotation
							JOINT hand.L
							{
								OFFSET 0.217000 -0.143000 0.039300
								CHANNELS 3 Xrotation Yrotation Zrotation
								JOINT palm.01.L
								{
									OFFSET 0.021770 -0.038291 0.012954
									CHANNELS 6 Xposition Yposition Zposition Yrotation Xrotation Zrotation
									JOINT f_index.01.L
									{
										OFFSET 0.053215 -0.044137 0.008236
										CHANNELS 3 Xrotation Yrotation Zrotation
										JOINT f_index.02.L
										{
											OFFSET 0.036108 -0.024723 -0.010656
											CHANNELS 3 Xrotation Yrotation Zrotation
											JOINT f_index.03.L
											{
												OFFSET 0.021342 -0.014948 -0.010846
												CHANNELS 3 Xrotation Yrotation Zrotation
												End Site
												{
													OFFSET 0.015600 -0.009860 -0.013421
												}
											}
										}
									}
									JOINT thumb.01.L
									{
										OFFSET -0.009090 -0.002348 -0.024223
										CHANNELS 6 Xposition Yposition Zposition Xrotation Yrotation Zrotation
										JOINT thumb.02.L
										{
											OFFSET 0.019713 -0.035076 -0.011120
											CHANNELS 3 Xrotation Yrotation Zrotation
											JOINT thumb.03.L
											{
												OFFSET 0.024877 -0.021748 -0.005176
												CHANNELS 3 Xrotation Yrotation Zrotation
												End Site
												{
													OFFSET 0.016125 -0.013029 -0.001569
												}
											}
										}
									}
								}
								JOINT palm.02.L
								{
									OFFSET 0.032823 -0.025104 0.012281
									CHANNELS 6 Xposition Yposition Zposition Yrotation Xrotation Zrotation
									JOINT f_middle.01.L
									{
										OFFSET 0.055723 -0.038469 0.008037
										CHANNELS 3 Xrotation Yrotation Zrotation
										JOINT f_middle.02.L
										{
											OFFSET 0.038167 -0.027473 -0.015582
											CHANNELS 3 Xrotation Yrotation Zrotation
											JOINT f_middle.03.L
											{
												OFFSET 0.021707 -0.016587 -0.017037
												CHANNELS 3 Xrotation Yrotation Zrotation
												End Site
												{
													OFFSET 0.014112 -0.010584 -0.014294
												}
											}
										}
									}
								}
								JOINT palm.03.L
								{
									OFFSET 0.039230 -0.011402 0.008390
									CHANNELS 6 Xposition Yposition Zposition Yrotation Xrotation Zrotation
									JOINT f_ring.01.L
									{
										OFFSET 0.061796 -0.031470 0.007910
										CHANNELS 3 Xrotation Yrotation Zrotation
										JOINT f_ring.02.L
										{
											OFFSET 0.033092 -0.023401 -0.019127
											CHANNELS 3 Xrotation Yrotation Zrotation
											JOINT f_ring.03.L
											{
												OFFSET 0.021392 -0.015362 -0.017824
												CHANNELS 3 Xrotation Yrotation Zrotation
												End Site
												{
													OFFSET 0.008670 -0.007297 -0.014686
												}
											}
										}
									}
								}
								JOINT palm.04.L
								{
									OFFSET 0.043417 0.002450 0.002889
									CHANNELS 6 Xposition Yposition Zposition Yrotation Xrotation Zrotation
									JOINT f_pinky.01.L
									{
										OFFSET 0.069986 -0.026156 0.003627
										CHANNELS 3 Xrotation Yrotation Zrotation
										JOINT f_pinky.02.L
										{
											OFFSET 0.018520 -0.012813 -0.016429
											CHANNELS 3 Xrotation Yrotation Zrotation
											JOINT f_pinky.03.L
											{
												OFFSET 0.013822 -0.009796 -0.014947
												CHANNELS 3 Xrotation Yrotation Zrotation
												End Site
												{
													OFFSET 0.007238 -0.006103 -0.011657
												}
											}
										}
									}
								}
							}
						}
					}
				}
				JOINT shoulder.R
				{
					OFFSET -0.016662 0.078957 0.057696
					CHANNELS 6 Xposition Yposition Zposition Yrotation Xrotation Zrotation
					JOINT upper_arm.R
					{
						OFFSET -0.176972 -0.020537 -0.095144
						CHANNELS 6 Xposition Yposition Zposition Xrotation Yrotation Zrotation
						JOINT forearm.R
						{
							OFFSET -0.247100 -0.135500 -0.061800
							CHANNELS 3 Xrotation Yrotation Zrotation
							JOINT hand.R
							{
								OFFSET -0.217000 -0.143000 0.039300
								CHANNELS 3 Xrotation Yrotation Zrotation
								JOINT palm.01.R
								{
									OFFSET -0.021773 -0.038278 0.012988
									CHANNELS 6 Xposition Yposition Zposition Yrotation Xrotation Zrotation
									JOINT f_index.01.R
									{
										OFFSET -0.053212 -0.044139 0.008249
										CHANNELS 3 Xrotation Yrotation Zrotation
										JOINT f_index.02.R
										{
											OFFSET -0.036049 -0.024835 -0.010634
											CHANNELS 3 Xrotation Yrotation Zrotation
											JOINT f_index.03.R
											{
												OFFSET -0.021371 -0.014881 -0.010866
												CHANNELS 3 Xrotation Yrotation Zrotation
												End Site
												{
													OFFSET -0.015584 -0.009883 -0.013422
												}
											}
										}
									}
									JOINT thumb.01.R
									{
										OFFSET 0.009113 -0.002381 -0.024211
										CHANNELS 6 Xposition Yposition Zposition Xrotation Yrotation Zrotation
										JOINT thumb.02.R
										{
											OFFSET -0.019694 -0.035097 -0.011088
											CHANNELS 3 Xrotation Yrotation Zrotation
											JOINT thumb.03.R
											{
												OFFSET -0.024867 -0.021762 -0.005168
												CHANNELS 3 Xrotation Yrotation Zrotation
												End Site
												{
													OFFSET -0.016120 -0.013036 -0.001565
												}
											}
										}
									}
								}
								JOINT palm.02.R
								{
									OFFSET -0.032828 -0.025095 0.012286
									CHANNELS 6 Xposition Yposition Zposition Yrotation Xrotation Zrotation
									JOINT f_middle.01.R
									{
										OFFSET -0.055721 -0.038472 0.008040
										CHANNELS 3 Xrotation Yrotation Zrotation
										JOINT f_middle.02.R
										{
											OFFSET -0.038101 -0.027593 -0.015557
											CHANNELS 3 Xrotation Yrotation Zrotation
											JOINT f_middle.03.R
											{
												OFFSET -0.021730 -0.016530 -0.017054
												CHANNELS 3 Xrotation Yrotation Zrotation
												End Site
												{
													OFFSET -0.014096 -0.010608 -0.014293
												}
											}
										}
									}
								}
								JOINT palm.03.R
								{
									OFFSET -0.039192 -0.011488 0.008390
									CHANNELS 6 Xposition Yposition Zposition Yrotation Xrotation Zrotation
									JOINT f_ring.01.R
									{
										OFFSET -0.061839 -0.031387 0.007876
										CHANNELS 3 Xrotation Yrotation Zrotation
										JOINT f_ring.02.R
										{
											OFFSET -0.033068 -0.023437 -0.019125
											CHANNELS 3 Xrotation Yrotation Zrotation
											JOINT f_ring.03.R
											{
												OFFSET -0.021371 -0.015393 -0.017822
												CHANNELS 3 Xrotation Yrotation Zrotation
												End Site
												{
													OFFSET -0.008654 -0.007321 -0.014684
												}
											}
										}
									}
								}
								JOINT palm.04.R
								{
									OFFSET -0.043421 0.002443 0.002845
									CHANNELS 6 Xposition Yposition Zposition Yrotation Xrotation Zrotation
									JOINT f_pinky.01.R
									{
										OFFSET -0.069983 -0.026169 0.003599
										CHANNELS 3 Xrotation Yrotation Zrotation
										JOINT f_pinky.02.R
										{
											OFFSET -0.018501 -0.012842 -0.016428
											CHANNELS 3 Xrotation Yrotation Zrotation
											JOINT f_pinky.03.R
											{
												OFFSET -0.013806 -0.009821 -0.014946
												CHANNELS 3 Xrotation Yrotation Zrotation
												End Site
												{
													OFFSET -0.007226 -0.006121 -0.011655
												}
											}
										}
									}
								}
							}
						}
					}
				}
			}
		}
	}
	JOINT pelvis.L
	{
		OFFSET 0.000000 0.000000 0.000000
		CHANNELS 6 Xposition Yposition Zposition Xrotation Yrotation Zrotation
		JOINT thigh.L
		{
			OFFSET 0.101675 0.001054 -0.000000
			CHANNELS 3 Xrotation Yrotation Zrotation
			JOINT shin.L
			{
				OFFSET 0.000000 -0.534800 0.041000
				CHANNELS 3 Xrotation Yrotation Zrotation
				JOINT foot.L
				{
					OFFSET 0.000000 -0.452000 -0.044800
					CHANNELS 3 Xrotation Yrotation Zrotation
					JOINT toe.L
					{
						OFFSET -0.000000 -0.068500 0.109600
						CHANNELS 3 Xrotation Yrotation Zrotation
						End Site
						{
							OFFSET -0.000000 0.000000 0.067200
						}
					}
				}
				JOINT heel.L
				{
					OFFSET 0.000000 -0.452000 -0.044800
					CHANNELS 3 Xrotation Yrotation Zrotation
					JOINT heel.02.L
					{
						OFFSET -0.038000 -0.085200 0.016200
						CHANNELS 6 Xposition Yposition Zposition Xrotation Yrotation Zrotation
						End Site
						{
							OFFSET 0.080000 -0.000000 0.000000
						}
					}
				}
			}
		}
	}
	JOINT pelvis.R
	{
		OFFSET 0.000000 0.000000 0.000000
		CHANNELS 6 Xposition Yposition Zposition Xrotation Yrotation Zrotation
		JOINT thigh.R
		{
			OFFSET -0.094325 0.001054 0.000000
			CHANNELS 3 Xrotation Yrotation Zrotation
			JOINT shin.R
			{
				OFFSET 0.000000 -0.534800 0.041000
				CHANNELS 3 Xrotation Yrotation Zrotation
				JOINT foot.R
				{
					OFFSET 0.000000 -0.452000 -0.044800
					CHANNELS 3 Xrotation Yrotation Zrotation
					JOINT toe.R
					{
						OFFSET -0.000000 -0.068500 0.109600
						CHANNELS 3 Xrotation Yrotation Zrotation
						End Site
						{
							OFFSET -0.000000 0.000000 0.067200
						}
					}
				}
				JOINT heel.R
				{
					OFFSET 0.000000 -0.452000 -0.044800
					CHANNELS 3 Xrotation Yrotation Zrotation
					JOINT heel.02.R
					{
						OFFSET 0.038000 -0.085200 0.016200
						CHANNELS 6 Xposition Yposition Zposition Xrotation Yrotation Zrotation
						End Site
						{
							OFFSET -0.080000 0.000000 -0.000000
						}
					}
				}
			}
		}
	}
}
MOTION
Frames: 4
Frame Time: 0.041667
-0.003675 0.299928 -0.021708 0.000000 -0.000000 0.000000 -0.000001 0.000000 0.000000 -0.000000 0.000000 0.000000 -0.000000 0.000000 0.000000 -0.000000 -0.000000 -0.000000 0.000924 0.155147 0.009274 -0.000001 -0.000000 -0.000000 0.019937 0.078966 0.057518 0.000001 0.000001 -0.000005 0.177024 -0.020465 -0.095062 -0.000006 -0.000003 0.000015 -0.000009 -0.000004 -0.000009 -0.000000 0.000000 0.000001 0.021770 -0.038291 0.012954 0.000001 -0.000001 0.000001 -0.000001 -0.000001 -0.000002 -0.000001 -0.000000 0.000007 -0.000000 0.000000 0.000003 -0.009090 -0.002348 -0.024224 -0.000002 0.000001 0.000001 0.000001 -0.000001 0.000001 -0.000000 0.000000 -0.000001 0.032823 -0.025104 0.012281 0.000000 -0.000000 0.000000 0.000001 0.000004 -0.000003 -0.000001 -0.000000 -0.000000 -0.000001 -0.000003 0.000003 0.039230 -0.011402 0.008390 -0.000000 -0.000000 0.000008 0.000001 0.000001 -0.000000 -0.000001 0.000003 -0.000001 0.000002 0.000002 -0.000000 0.043417 0.002450 0.002889 -0.000000 0.000001 0.000002 -0.000001 -0.000003 0.000001 -0.000000 0.000003 -0.000000 -0.000000 -0.000003 0.000001 -0.016662 0.078956 0.057696 -0.000001 0.000002 0.000011 -0.176972 -0.020537 -0.095144 0.000001 -0.000003 -0.000005 -0.000006 0.000005 -0.000014 -0.000001 -0.000000 0.000000 -0.021773 -0.038278 0.012988 0.000000 -0.000001 -0.000003 -0.000001 0.000001 -0.000003 -0.000001 -0.000000 0.000001 0.000001 0.000002 0.000007 0.009113 -0.002381 -0.024211 0.000002 -0.000001 0.000004 -0.000000 0.000001 0.000002 0.000000 0.000000 -0.000003 -0.032828 -0.025095 0.012286 0.000001 -0.000001 -0.000001 -0.000001 0.000003 -0.000003 -0.000002 0.000004 -0.000001 0.000001 -0.000002 -0.000000 -0.039192 -0.011488 0.008390 0.000000 0.000000 0.000001 -0.000000 0.000003 -0.000003 -0.000001 0.000001 0.000002 -0.000001 0.000000 -0.000003 -0.043421 0.002443 0.002844 -0.000000 -0.000001 0.000000 -0.000007 0.000003 -0.000002 -0.000003 -0.000000 -0.000000 0.000001 -0.000000 0.000001 -0.000000 0.000000 -0.000000 -0.000001 -0.000000 0.000001 0.000009 -0.000202 0.000014 -0.000026 0.000202 -0.000015 0.000000 -0.000000 -0.000000 0.000002 -0.000000 -0.000000 0.000000 0.000000 -0.000000 -0.038000 -0.085200 0.016200 0.000000 0.000000 0.000000 0.000000 -0.000000 -0.000000 -0.000001 0.000000 -0.000004 0.000008 -0.000013 0.000005 -0.000012 0.000013 -0.000001 -0.000003 -0.000000 -0.000000 0.000000 -0.000000 -0.000000 0.000002 -0.000000 -0.000000 0.038000 -0.085200 0.016200 0.000002 -0.000000 0.000000 
-0.010862 0.275364 -0.025695 71.879948 29.031282 -57.220132 -0.000003 -0.000000 -0.000001 -0.000003 -0.000002 0.000004 0.000002 0.000000 -0.000002 0.000002 0.000001 -0.000001 0.000924 0.155147 0.009274 5.389385 -0.007274 -5.401723 0.019937 0.078966 0.057518 0.892720 0.784632 29.559925 0.177025 -0.020465 -0.095062 -46.494522 16.172653 -59.353272 -13.696917 -11.791286 -23.663535 -0.000002 0.000001 0.000003 0.021770 -0.038291 0.012954 0.000001 -0.000003 -0.000002 -0.000002 -0.000002 0.000001 -0.000000 -0.000001 0.000007 -0.000001 0.000003 -0.000002 -0.009090 -0.002348 -0.024224 0.000001 -0.000003 0.000002 0.000000 -0.000001 -0.000000 -0.000002 0.000002 0.000001 0.032823 -0.025104 0.012281 0.000000 -0.000002 0.000000 0.000002 0.000000 -0.000005 -0.000001 -0.000003 0.000001 -0.000002 -0.000003 0.000003 0.039230 -0.011402 0.008390 -0.000000 -0.000001 0.000003 0.000001 0.000004 -0.000000 0.000001 0.000001 0.000003 0.000004 -0.000002 0.000003 0.043417 0.002450 0.002889 -0.000001 -0.000001 -0.000003 0.000001 -0.000003 -0.000000 -0.000001 -0.000001 0.000002 -0.000001 -0.000003 -0.000000 -0.016662 0.078956 0.057696 13.945498 0.330384 -31.883490 -0.176972 -0.020537 -0.095144 -50.856557 -20.189529 61.214901 -4.118735 6.039810 12.116803 -0.000000 0.000001 0.000002 -0.021773 -0.038278 0.012988 0.000001 -0.000002 0.000002 -0.000003 0.000001 -0.000001 -0.000002 -0.000002 0.000001 0.000002 -0.000005 0.000008 0.009114 -0.002381 -0.024211 -0.000001 0.000001 -0.000006 -0.000002 -0.000002 0.000000 -0.000001 -0.000002 -0.000003 -0.032828 -0.025095 0.012286 0.000002 -0.000001 -0.000001 -0.000001 0.000002 -0.000001 -0.000002 0.000002 -0.000004 -0.000002 0.000004 -0.000007 -0.039192 -0.011488 0.008390 0.000000 0.000001 -0.000002 -0.000003 -0.000000 0.000000 0.000002 0.000000 -0.000000 -0.000001 -0.000003 -0.000003 -0.043421 0.002443 0.002845 -0.000000 -0.000002 0.000000 -0.000004 0.000003 0.000001 -0.000002 0.000002 -0.000000 0.000005 -0.000002 0.000002 0.000000 0.000000 0.000000 -2.092618 -0.369732 3.181129 -85.019155 -0.630316 -4.296697 49.728435 -1.470033 15.007818 -0.000002 0.000002 -0.000001 -0.000000 0.000004 -0.000003 0.000000 -0.000001 0.000001 -0.038000 -0.085200 0.016200 0.000000 -0.000004 0.000000 0.000000 0.000000 0.000000 -2.060531 -0.367624 4.415512 -69.965015 0.573517 2.970439 69.494074 1.283850 -13.066690 0.000003 -0.000000 0.000000 0.000003 -0.000001 -0.000000 0.000007 -0.000000 -0.000001 0.038000 -0.085200 0.016200 -0.000003 0.000001 -0.000002 
-0.012697 0.276901 -0.028370 69.065145 27.892437 -55.539581 -0.000000 0.000001 -0.000001 -0.000001 0.000001 0.000002 0.000002 -0.000000 -0.000000 0.000004 0.000002 -0.000001 0.000924 0.155148 0.009274 4.331530 -0.005120 -5.864684 0.019937 0.078966 0.057518 -2.083676 0.800104 30.171360 0.177024 -0.020465 -0.095062 -49.554119 18.080107 -60.236258 -9.654903 -9.993381 -18.704553 0.000002 -0.000003 0.000000 0.021770 -0.038291 0.012954 0.000001 -0.000000 -0.000002 -0.000001 0.000000 -0.000000 -0.000000 -0.000001 0.000007 0.000001 -0.000003 0.000003 -0.009090 -0.002348 -0.024224 0.000001 -0.000001 0.000003 -0.000000 0.000002 0.000005 0.000006 -0.000003 -0.000008 0.032823 -0.025104 0.012281 -0.000002 0.000001 -0.000001 0.000003 0.000001 -0.000005 -0.000003 0.000002 0.000004 -0.000000 -0.000003 0.000003 0.039230 -0.011402 0.008390 0.000000 -0.000004 -0.000001 0.000002 0.000006 0.000001 0.000000 -0.000000 0.000003 0.000003 -0.000003 0.000003 0.043417 0.002450 0.002889 -0.000001 0.000001 -0.000003 -0.000007 -0.000005 -0.000000 0.000001 0.000000 0.000001 -0.000001 0.000001 0.000001 -0.016662 0.078956 0.057696 12.560126 0.891941 -32.726025 -0.176972 -0.020537 -0.095144 -54.645991 -22.637258 62.391586 -1.540692 3.636680 11.523215 0.000002 0.000002 -0.000000 -0.021773 -0.038278 0.012988 0.000000 0.000002 0.000002 -0.000002 0.000001 0.000001 0.000002 -0.000001 -0.000008 -0.000000 -0.000002 0.000005 0.009114 -0.002381 -0.024211 0.000003 -0.000000 0.000004 0.000002 0.000001 0.000002 0.000000 -0.000001 -0.000001 -0.032828 -0.025095 0.012286 0.000001 -0.000000 -0.000001 -0.000002 0.000003 0.000001 0.000001 0.000001 0.000001 0.000002 0.000000 -0.000000 -0.039192 -0.011488 0.008390 0.000000 0.000004 0.000001 -0.000002 0.000008 -0.000003 -0.000003 -0.000002 -0.000000 -0.000000 0.000001 0.000002 -0.043421 0.002443 0.002844 0.000000 0.000002 0.000002 -0.000004 0.000004 -0.000002 0.000000 0.000000 0.000000 0.000001 -0.000002 0.000004 -0.000000 0.000000 -0.000000 -2.050586 -0.423411 3.818095 -87.914452 -0.654068 -4.577455 56.324943 -1.280281 13.033457 -0.000003 0.000001 0.000000 -0.000001 -0.000002 0.000001 -0.000003 0.000001 -0.000000 -0.038000 -0.085200 0.016200 -0.000002 -0.000004 0.000000 0.000000 0.000000 -0.000000 -2.021081 -0.421139 5.052498 -75.285856 0.728837 4.874445 71.743897 1.204994 -12.250869 0.000003 -0.000002 0.000002 0.000001 0.000000 0.000000 0.000003 -0.000000 -0.000001 0.038000 -0.085200 0.016200 -0.000002 -0.000002 0.000002 
-0.014224 0.278142 -0.028961 68.433154 30.138688 -54.615958 -0.000001 -0.000002 0.000000 0.000002 -0.000002 0.000001 0.000001 -0.000001 -0.000001 0.000000 -0.000001 0.000003 0.000924 0.155148 0.009274 4.275443 -0.004452 -4.887464 0.019937 0.078966 0.057518 -2.928846 1.000500 30.150719 0.177024 -0.020465 -0.095062 -48.072767 16.494731 -59.119577 -9.112627 -9.629244 -19.320141 0.000001 -0.000000 -0.000002 0.021770 -0.038291 0.012954 -0.000001 -0.000001 -0.000000 -0.000003 0.000003 0.000003 -0.000000 -0.000000 0.000009 0.000003 0.000000 0.000003 -0.009090 -0.002348 -0.024223 0.000001 0.000003 -0.000000 -0.000000 -0.000001 0.000001 0.000001 -0.000000 0.000003 0.032823 -0.025104 0.012281 0.000000 -0.000003 0.000002 0.000003 -0.000002 -0.000005 -0.000002 0.000002 -0.000000 -0.000000 0.000001 0.000001 0.039230 -0.011402 0.008390 0.000001 -0.000003 0.000001 0.000003 -0.000000 -0.000002 0.000001 0.000001 0.000003 0.000005 -0.000005 0.000003 0.043417 0.002450 0.002889 0.000000 -0.000003 -0.000003 -0.000004 -0.000003 -0.000002 -0.000001 0.000004 -0.000000 -0.000002 -0.000000 0.000001 -0.016662 0.078957 0.057696 11.835011 0.862821 -31.591954 -0.176972 -0.020537 -0.095144 -52.671284 -20.492043 61.211063 -0.448082 2.516833 9.885947 -0.000003 0.000001 -0.000003 -0.021773 -0.038278 0.012988 0.000000 -0.000002 0.000000 0.000000 0.000004 -0.000006 -0.000002 0.000001 -0.000004 0.000004 0.000000 0.000001 0.009114 -0.002381 -0.024211 0.000002 0.000001 -0.000003 -0.000000 -0.000003 0.000002 0.000003 0.000001 -0.000004 -0.032828 -0.025095 0.012286 0.000002 -0.000001 -0.000003 -0.000000 0.000003 0.000001 -0.000000 -0.000001 -0.000001 -0.000001 0.000003 -0.000004 -0.039192 -0.011488 0.008390 0.000000 -0.000001 0.000003 0.000000 0.000001 -0.000002 0.000003 -0.000001 0.000000 0.000002 0.000003 -0.000000 -0.043421 0.002443 0.002845 0.000001 -0.000002 0.000000 -0.000002 0.000004 -0.000003 0.000000 0.000001 0.000004 -0.000001 0.000002 0.000002 0.000000 0.000000 -0.000000 -1.996195 -0.332858 2.833435 -88.337726 -0.736145 -5.671590 59.568095 -0.993983 10.083696 -0.000002 0.000005 -0.000001 -0.000004 -0.000001 0.000000 0.000000 0.000004 -0.000002 -0.038000 -0.085200 0.016200 0.000003 -0.000004 0.000001 0.000000 0.000000 -0.000000 -1.964629 -0.330975 4.067796 -76.701959 0.815315 6.005947 71.816099 0.834381 -8.447861 0.000000 -0.000000 -0.000000 -0.000003 0.000003 -0.000003 0.000003 -0.000000 -0.000000 0.038000 -0.085200 0.016200 0.000001 -0.000002 0.000003 
